<svg width="116" height="47" viewBox="0 0 116 47" fill="none" xmlns="http://www.w3.org/2000/svg">
<g clip-path="url(#clip0_2019_3764)">
<path d="M13.6718 21.3093C12.0986 21.8733 10.926 23.0309 10.1543 24.7823H25.2485V31.9509H1.07102V30.4816C1.24912 27.4241 2.06543 24.4558 3.51993 21.5764C5.00412 18.6971 7.45303 16.5896 10.8667 15.2538L12.247 14.7195C14.2655 13.918 15.7497 13.2353 16.6995 12.6713C17.6494 12.0776 18.1244 11.3801 18.1244 10.5786C18.1244 9.48029 17.6494 8.60462 16.6995 7.95157C15.7793 7.29853 14.7998 6.97201 13.7608 6.97201C12.1282 6.97201 10.7479 7.28369 9.61995 7.90705C8.52165 8.50072 7.85376 9.46544 7.61629 10.8012L0.492188 10.0443C0.789026 8.02578 1.5608 6.27444 2.80752 4.79024C4.08392 3.27637 5.67201 2.13354 7.57177 1.36177C9.50121 0.589992 11.5642 0.204102 13.7608 0.204102C15.72 0.204102 17.59 0.619674 19.3711 1.45082C21.1521 2.25228 22.5918 3.40995 23.6901 4.92382C24.7884 6.43769 25.3375 8.18904 25.3375 10.1779C25.3375 12.137 24.8477 13.7993 23.8682 15.1647C22.9183 16.5005 21.627 17.6285 19.9944 18.5487C18.3618 19.4392 16.2543 20.3594 13.6718 21.3093Z" fill="white"/>
<path d="M44.273 32.6192C41.364 32.6192 38.6776 31.9068 36.2139 30.482C33.7501 29.0275 31.791 27.0683 30.3365 24.6046C28.9116 22.1408 28.1992 19.4544 28.1992 16.5454C28.1992 13.6364 28.9116 10.95 30.3365 8.4863C31.791 6.02255 33.7501 4.07826 36.2139 2.65344C38.6776 1.19894 41.364 0.47168 44.273 0.47168C47.182 0.47168 49.8684 1.19894 52.3321 2.65344C54.7959 4.07826 56.7402 6.02255 58.165 8.4863C59.6195 10.95 60.3468 13.6364 60.3468 16.5454C60.3468 19.4544 59.6195 22.1408 58.165 24.6046C56.7402 27.0683 54.7959 29.0275 52.3321 30.482C49.8684 31.9068 47.182 32.6192 44.273 32.6192ZM44.273 25.0053C45.8166 25.0053 47.2265 24.6343 48.5029 23.8922C49.809 23.1204 50.8331 22.0963 51.5752 20.8199C52.347 19.5138 52.7329 18.089 52.7329 16.5454C52.7329 15.0019 52.347 13.5919 51.5752 12.3155C50.8331 11.0094 49.809 9.97049 48.5029 9.19871C47.2265 8.42693 45.8166 8.04104 44.273 8.04104C42.7294 8.04104 41.3046 8.42693 39.9985 9.19871C38.7221 9.97049 37.698 11.0094 36.9263 12.3155C36.1545 13.5919 35.7686 15.0019 35.7686 16.5454C35.7686 18.089 36.1545 19.5138 36.9263 20.8199C37.698 22.0963 38.7221 23.1204 39.9985 23.8922C41.3046 24.6343 42.7294 25.0053 44.273 25.0053Z" fill="white"/>
<path d="M84.9738 19.528H87.8235V26.6966H84.9738V31.9951H77.4044V26.6966H62.9336V19.528L71.8387 0.827148H80.2541L71.3044 19.528H77.4044V13.606H84.9738V19.528Z" fill="white"/>
<path d="M111.656 15.9662C113.912 17.4504 115.04 19.6915 115.04 22.6896C115.04 25.7767 113.941 28.2108 111.745 29.9918C109.578 31.7431 106.595 32.6188 102.795 32.6188C98.9958 32.6188 95.9978 31.7431 93.8012 29.9918C91.6343 28.2108 90.5508 25.7767 90.5508 22.6896C90.5508 19.6321 91.6788 17.391 93.9347 15.9662C92.0944 14.6304 91.1742 12.6119 91.1742 9.91069C91.1742 6.88295 92.1983 4.50824 94.2464 2.78659C96.3243 1.06493 99.1739 0.204102 102.795 0.204102C106.416 0.204102 109.251 1.06493 111.299 2.78659C113.377 4.50824 114.416 6.88295 114.416 9.91069C114.416 12.6119 113.496 14.6304 111.656 15.9662ZM102.795 6.92747C101.459 6.92747 100.406 7.19463 99.634 7.72893C98.8919 8.26324 98.5209 8.9905 98.5209 9.91069C98.5209 10.8012 98.8919 11.5136 99.634 12.0479C100.406 12.5822 101.459 12.8494 102.795 12.8494C104.131 12.8494 105.17 12.5822 105.912 12.0479C106.684 11.5136 107.07 10.8012 107.07 9.91069C107.07 8.9905 106.684 8.26324 105.912 7.72893C105.17 7.19463 104.131 6.92747 102.795 6.92747ZM102.795 25.7173C104.309 25.7173 105.541 25.4056 106.491 24.7823C107.441 24.1589 107.916 23.2981 107.916 22.1998C107.916 21.1015 107.441 20.2852 106.491 19.7509C105.57 19.2166 104.339 18.9494 102.795 18.9494C101.251 18.9494 100.005 19.2166 99.0552 19.7509C98.135 20.2852 97.6749 21.1015 97.6749 22.1998C97.6749 23.2981 98.1498 24.1589 99.0997 24.7823C100.049 25.4056 101.281 25.7173 102.795 25.7173Z" fill="white"/>
<path d="M41.4156 46.5995H43.7297L47.3808 37.5361H44.6553L42.5983 43.2313L40.5542 37.5361H37.7773L41.4156 46.5995Z" fill="white"/>
<path d="M48.8945 46.5353H56.1967V44.414H51.3628V42.987H55.6824V41.02H51.3628V39.6444H56.1324V37.5361H48.8945V46.5353Z" fill="white"/>
<path d="M58.125 46.5353H60.5933V41.5986L64.4501 46.5353H66.6228V37.5361H64.1544V42.2928L60.4519 37.5361H58.125V46.5353Z" fill="white"/>
<path d="M71.06 46.5353H73.554V39.7216H76.2538V37.5361H68.373V39.7216H71.06V46.5353Z" fill="white"/>
<path d="M82.0411 46.7024C84.5995 46.7024 86.2579 45.4168 86.2579 42.5242V37.5361H83.7381V42.6013C83.7381 43.8612 83.0825 44.4526 82.0669 44.4526C81.0641 44.4526 80.4084 43.8355 80.4084 42.537V37.5361H77.8887V42.5885C77.8887 45.4039 79.4957 46.7024 82.0411 46.7024Z" fill="white"/>
<path d="M88.377 46.5353H90.8711V43.8098H91.9767L93.7894 46.5353H96.6563L94.5094 43.3984C95.6278 42.9227 96.3606 42.0099 96.3606 40.6215V40.5958C96.3606 39.7087 96.0906 39.0274 95.5635 38.5003C94.9593 37.896 94.008 37.5361 92.6324 37.5361H88.377V46.5353ZM90.8711 41.8557V39.683H92.5167C93.3395 39.683 93.8666 40.043 93.8666 40.7629V40.7886C93.8666 41.4443 93.3652 41.8557 92.5295 41.8557H90.8711Z" fill="white"/>
<path d="M98.2598 46.5353H105.562V44.414H100.728V42.987H105.048V41.02H100.728V39.6444H105.498V37.5361H98.2598V46.5353Z" fill="white"/>
<path d="M111.026 46.6895C113.211 46.6895 114.664 45.5968 114.664 43.7584V43.7326C114.664 42.0485 113.378 41.38 111.321 40.93C110.062 40.6472 109.753 40.4672 109.753 40.0558V40.0301C109.753 39.6959 110.049 39.4516 110.653 39.4516C111.45 39.4516 112.35 39.7473 113.173 40.3387L114.42 38.5774C113.443 37.7932 112.247 37.3818 110.717 37.3818C108.557 37.3818 107.233 38.5902 107.233 40.2615V40.2872C107.233 42.1256 108.712 42.6656 110.627 43.1027C111.861 43.3984 112.157 43.5912 112.157 43.9769V44.0026C112.157 44.3883 111.797 44.6197 111.116 44.6197C110.074 44.6197 109.097 44.2469 108.197 43.5398L106.809 45.1982C107.927 46.1881 109.432 46.6895 111.026 46.6895Z" fill="white"/>
<path d="M1.0918 43.0752H33.3143V44.8654H1.0918V43.0752Z" fill="white"/>
</g>
<defs>
<clipPath id="clip0_2019_3764">
<rect width="116" height="47" fill="white"/>
</clipPath>
</defs>
</svg>
