<svg width="165" height="24" viewBox="0 0 165 24" fill="none" xmlns="http://www.w3.org/2000/svg">
<path d="M53.3812 15.6278C51.9386 20.3132 48.0045 23.2611 42.6265 23.2611C35.9044 23.2611 31.3467 18.5438 31.3467 11.6306C31.3467 4.71735 35.9044 0 42.6265 0C48.0032 0 51.9386 2.94788 53.348 7.63329L47.7745 8.38654C46.889 6.06043 45.0861 4.65223 42.6265 4.65223C39.2494 4.65223 36.9546 7.46986 36.9546 11.6306C36.9546 15.7913 39.2494 18.6089 42.6265 18.6089C45.0849 18.6089 46.9222 17.2007 47.8065 14.8414L53.38 15.6278H53.3812Z" fill="#092C3F"/>
<path d="M54.1733 14.9066V14.6436C54.1733 9.4999 58.1406 6.29028 62.8619 6.29028C67.5831 6.29028 71.5505 9.50113 71.5505 14.6436V14.9066C71.5505 20.1155 67.5831 23.26 62.8619 23.26C58.1406 23.26 54.1733 20.1155 54.1733 14.9066ZM66.5673 14.9066V14.6436C66.5673 12.0558 64.8616 10.4829 62.8619 10.4829C60.8622 10.4829 59.1565 12.0558 59.1565 14.6436V14.9066C59.1565 17.5276 60.861 19.0673 62.8619 19.0673C64.8628 19.0673 66.5673 17.5276 66.5673 14.9066Z" fill="#092C3F"/>
<path d="M72.9956 6.61823H77.9148V9.59929C79.0291 7.63321 80.8 6.25696 83.4232 6.29014H83.4564V11.0407H83.4232C80.0129 11.0738 78.1768 12.6135 77.9148 15.7261V22.9342H72.9956V6.61823Z" fill="#092C3F"/>
<path d="M92.3724 23.26C87.618 23.26 83.9125 20.1155 83.9125 14.9066V14.6436C83.9125 9.4999 87.5847 6.29028 92.274 6.29028C96.9633 6.29028 100.602 9.50113 100.602 14.6436V16.1833H88.897C89.2905 18.1162 90.5363 19.1644 92.4056 19.1644C93.6846 19.1644 94.5701 18.6397 95.1924 17.6247L100.307 18.346C99.0281 21.3603 96.0114 23.26 92.3724 23.26ZM88.8638 13.104H95.6843C95.3239 11.2042 94.1433 10.2212 92.274 10.2212C90.4047 10.2212 89.2241 11.2042 88.8638 13.104Z" fill="#092C3F"/>
<path d="M108.57 19.6891C109.718 19.6891 110.833 19.2627 110.833 18.2477C110.833 17.6247 110.406 17.1012 109.39 16.9366L106.505 16.4782C103.423 15.9867 101.686 14.2504 101.686 11.6294C101.686 8.35344 104.341 6.28906 108.538 6.28906C112.145 6.28906 114.735 8.05853 115.424 11.0715L110.636 11.5631C110.439 10.6783 109.718 9.8919 108.341 9.8919C107.259 9.8919 106.44 10.3834 106.44 11.235C106.44 11.8567 106.867 12.3163 107.916 12.4797L110.966 12.9381C114.048 13.3964 115.687 15.1008 115.687 17.7869C115.687 21.1944 112.999 23.2575 108.571 23.2575C104.44 23.2575 101.981 21.2914 101.292 18.2453L105.948 17.7537C106.145 18.7687 106.899 19.6866 108.571 19.6866L108.57 19.6891Z" fill="#092C3F"/>
<path d="M127.108 6.29021C129.731 6.29021 132.847 7.66647 132.847 12.2855V22.933H127.929V13.6618C127.929 11.6637 127.043 10.4841 125.24 10.4841C123.339 10.4841 122.06 11.794 122.06 13.9235V22.933H117.141V0H122.06V9.04149C123.174 7.24007 124.912 6.29021 127.11 6.29021H127.108Z" fill="#092C3F"/>
<path d="M142.927 23.26C138.173 23.26 134.467 20.1155 134.467 14.9066V14.6436C134.467 9.4999 138.14 6.29028 142.828 6.29028C147.516 6.29028 151.156 9.50113 151.156 14.6436V16.1833H139.451C139.844 18.1162 141.09 19.1644 142.959 19.1644C144.238 19.1644 145.124 18.6397 145.746 17.6247L150.861 18.346C149.582 21.3603 146.565 23.26 142.926 23.26H142.927ZM139.419 13.104H146.239C145.879 11.2042 144.698 10.2212 142.829 10.2212C140.96 10.2212 139.779 11.2042 139.419 13.104Z" fill="#092C3F"/>
<path d="M157.821 22.933H152.902V0H157.821V22.933Z" fill="#092C3F"/>
<path d="M165 22.933H160.081V0H165V22.933Z" fill="#092C3F"/>
<path d="M20.389 22.933H11.4114C5.11847 22.933 0 17.8188 0 11.531C0 5.24328 5.1775 0 11.5405 0H24.9836V4.49125H11.5405C7.65557 4.49125 4.49496 7.64926 4.49496 11.531C4.49496 15.4128 7.59777 18.4406 11.4102 18.4406H20.3878C20.8195 18.4406 21.1712 18.0891 21.1712 17.6578V17.5718C21.1712 17.1405 20.8195 16.7891 20.3878 16.7891H11.5565C8.64556 16.7891 6.27818 14.4236 6.27818 11.5151V11.3307C6.27818 8.42218 8.64679 6.05674 11.5565 6.05674H25.1472V10.548H11.5565C11.1249 10.548 10.7731 10.8994 10.7731 11.3307V11.5151C10.7731 11.9464 11.1249 12.2978 11.5565 12.2978H20.3878C23.2987 12.2978 25.6661 14.6632 25.6661 17.5718V17.6578C25.6661 20.5664 23.2987 22.9318 20.3878 22.9318L20.389 22.933Z" fill="#092C3F"/>
</svg>