<?xml version="1.0" encoding="UTF-8"?>
<svg id="Layer_1" xmlns="http://www.w3.org/2000/svg" version="1.1" viewBox="0 0 301 75.7">
  <!-- Generator: Adobe Illustrator 29.0.0, SVG Export Plug-In . SVG Version: 2.1.0 Build 186)  -->
  <defs>
    <style>
      .st0 {
        fill: #595a5c;
      }

      .st1 {
        fill: #2bace2;
      }
    </style>
  </defs>
  <g>
    <g>
      <path class="st0" d="M178.8,61.9c0,5.3-3,7.7-8.5,7.7h-.4c-5.5,0-8.5-2.3-8.5-7.7v-21.8c0-5.1,3-7.7,8.5-7.7h.4c5.5,0,8.5,2.6,8.5,7.7v4.9h-3.7v-4c0-3.8-1.5-5.3-5-5.3s-5,1.4-5,5.3v20c0,3.8,1.5,5.3,5,5.3s5-1.4,5-5.3v-6.7h-5.2v-3.3h9v11h0Z"/>
      <path class="st0" d="M199.1,69.2l-5.6-15.4h-5.4v15.4h-3.7v-36.4h8.8c5.5,0,8.5,2.5,8.5,7.7v5.7c0,3.8-1.6,6.1-4.6,7.1l5.9,15.9h-3.9,0ZM188.2,50.5h4.8c3.5,0,5-1.4,5-5.3v-3.8c0-3.8-1.5-5.3-5-5.3h-4.8v14.4h0Z"/>
      <path class="st0" d="M215.8,32.3h.4c5.5,0,8.5,2.5,8.5,7.7v21.8c0,5.2-3,7.7-8.5,7.7h-.4c-5.5,0-8.5-2.5-8.5-7.7v-21.8c0-5.3,3-7.7,8.5-7.7h0ZM216,66.2c3.5,0,5-1.4,5-5.3v-20c0-3.8-1.5-5.3-5-5.3s-5,1.4-5,5.3v20c0,3.8,1.5,5.3,5,5.3Z"/>
      <path class="st0" d="M249.6,69.2h-3.6l-3.9-28.5-3.9,28.5h-3.7l-6-36.4h3.7l4.2,27.7,3.3-27.7h4.8l3.3,27.7,4.2-27.7h3.5l-6,36.4h0Z"/>
      <path class="st0" d="M275.5,36.1h-7v33h-3.7v-33h-7v-3.4h17.7v3.4h0Z"/>
      <path class="st0" d="M282.9,32.8v16.2h10.2v-16.2h3.7v36.4h-3.7v-16.8h-10.2v16.8h-3.7v-36.4h3.7Z"/>
    </g>
    <g>
      <path class="st1" d="M110.7,40.4v21c0,5.5-3.6,7.7-9.2,7.7h-9.3v-36.4h9.3c5.5,0,9.2,2.2,9.2,7.7ZM101.4,38.1h-3.1v25.8h3.1c2,0,3.3-.7,3.3-3.3v-19.2c0-2.6-1.4-3.3-3.3-3.3h0Z"/>
      <path class="st1" d="M116.7,32.7h16.4l-1.3,5.3h-9.1v10.2h8.8l-1.3,5.3h-7.5v15.6h-6v-36.4h0Z"/>
      <path class="st1" d="M139.4,60.3v-27.5h6v28.7c0,5.6-3.7,7.7-9.3,7.7h-4.9l1.3-5.6h3.5c2,0,3.3-.7,3.3-3.3h0Z"/>
    </g>
  </g>
  <path class="st1" d="M76.5,69.2l-12.2-21.4c0-9.4-5-17.9-12.9-22.6h0L39.1,3.5l-10.7,19.6h0c-1.9.7-3.8,1.7-5.5,2.9-5.8,4-9.7,10-11,17-.6,3.5-.6,6.9.1,10.2h0l-8.7,15.9h18.9c3.1,2.3,6.8,3.9,10.8,4.6,1.6.3,3.2.4,4.8.4,5.7,0,11.1-1.9,15.5-5.1h23.1ZM55.9,67.1h0ZM57.6,65.2s.9-.9,1-1c1.1-1.4,2-2.8,2.9-4.4s.3-1.4.4-1.6l.3,1.5,2.5,4.4,1.1,1.1-1.4-.5h-5.5l-1.3.5ZM64.3,48.9h0s0,0,0,0ZM62.4,57.6s0-.1,0-.1c0,0,0,.1,0,.1ZM63,55.9h0s0,0,0,0ZM60.6,52c-.4,2.1-1.1,4.2-2,6.1-2.8,1.4-6.1,2.3-9.7,2.7,1.5-2.8,2.7-6.1,3.4-9.6,3.2-.5,6.1-1.3,8.7-2.5,0,1.1-.1,2.2-.4,3.3h0ZM40.9,36.9l1.8-10c3.6,1.2,6.2,5,7.4,10.2-2.9.4-6.1.3-9.3-.2h0ZM50.6,39.1c.5,3.1.5,6.6-.1,10.2-3.7.4-7.7.3-11.7-.4l1.8-10c1.9.3,3.8.4,5.7.4s3-.1,4.4-.3h0ZM40.7,26.6l-1.8,10c-3.2-.7-6.1-1.7-8.7-3.1.6-.9,1.2-1.6,1.8-2.4,2.6-3,5.6-4.6,8.4-4.6s.2,0,.3,0h0ZM38.5,38.6l-1.8,10c-4-.8-7.8-2.1-11.1-3.8.7-3.5,1.9-6.7,3.5-9.5,2.8,1.5,6,2.7,9.4,3.4ZM38.4,51c2.6.4,5.1.6,7.6.6s2.7,0,4.1-.2c-.8,3.6-2.1,6.9-3.7,9.6-3.1.2-6.4,0-9.7-.5l1.7-9.5h0ZM60.9,46.4c-2.4,1.2-5.2,2.1-8.3,2.6.5-3.6.5-7.1,0-10.2,2-.4,3.9-1,5.6-1.9,1.6,2.9,2.5,6.1,2.7,9.4h0ZM57.1,35.1c-1.5.7-3.1,1.3-4.9,1.6-1.1-4.7-3.3-8.5-6.4-10.6,4.7,1.7,8.7,4.9,11.3,9ZM33.6,22.1l.9-1,2.3-4.2.5-1.6.5,1.6,2.4,4.1.9.9-.7-.3s-.2,0-.4,0c-1.8-.1-3.5,0-5.2.1-.2,0-1,.5-1,.5h0ZM24.8,28.8c3.9-2.7,8.4-4.1,13.1-4.1s.1,0,.2,0c-2.6.6-5.3,2.3-7.6,5-.7.8-1.4,1.7-2.1,2.7-1.5-1-2.9-2.1-4-3.3.1-.1.3-.2.4-.3h0ZM22.7,30.4c1.3,1.4,2.8,2.6,4.6,3.7-1.6,2.8-2.8,6.1-3.6,9.5-2.7-1.6-5-3.4-6.8-5.4,1.4-3,3.3-5.7,5.9-7.9ZM15.2,43.7c.2-1.1.5-2.2.8-3.2,2,2,4.5,3.8,7.3,5.4-.6,3.5-.7,7-.3,10.2-3.2-1.7-6-3.7-8.1-6-.2-2.1-.1-4.2.3-6.4h0ZM13.8,58.4c0,.2.2.8.3,1,.9,1.7,1.9,3.3,3,4.8.1.2.6.5.8.7l-1.2-.2h-5.2l-1.2.3.7-.8,2.6-4.7.2-1h0ZM15.6,53.5c2.3,1.9,4.9,3.7,7.9,5.1.3,1.2.6,2.4,1,3.5,1.3,3.3,3.1,5.8,5.3,7.3-7.2-2.7-12.5-8.7-14.3-15.9h0ZM33,68.7c-2.8-.9-5.1-3.5-6.5-7.3-.2-.6-.4-1.1-.6-1.7,2.6,1.1,5.4,1.9,8.3,2.5l-1.2,6.5h0ZM25.3,57.2c-.6-3.2-.6-6.7,0-10.3,3.4,1.6,7.1,2.9,11.1,3.7l-1.7,9.5c-3.3-.7-6.4-1.7-9.3-2.9h0ZM35,69.1l1.2-6.5c2.6.4,5.1.6,7.6.6s.7,0,1,0c-2.8,3.8-6.4,6.1-9.9,5.9h0ZM37.7,70.8c3.6-.9,7.1-3.7,9.8-7.9,3.3-.3,6.5-.9,9.3-2-1.6,2.2-3.5,4.1-5.8,5.7-4,2.7-8.6,4.1-13.3,4.1h0Z"/>
</svg>