<svg id="Layer_1" data-name="Layer 1" xmlns="http://www.w3.org/2000/svg" xmlns:xlink="http://www.w3.org/1999/xlink" viewBox="0 0 238.44 71.36"><defs><style>.cls-1{fill:none;}.cls-2{clip-path:url(#clip-path);}.cls-3{fill:#5e63b8;opacity:0.29;}.cls-4{fill:#4f7353;}.cls-5{fill:url(#linear-gradient);}.cls-6{fill:#2f452f;}</style><clipPath id="clip-path"><path class="cls-1" d="M466.37,791.43l159.91-277c32.42-56.15,113.48-56.15,145.9,0L835,623.18l154.6-267.77c51-88.41,178.64-88.41,229.67,0l251.75,436H466.37Z"/></clipPath><linearGradient id="linear-gradient" y1="17.84" x2="71.36" y2="17.84" gradientUnits="userSpaceOnUse"><stop offset="0" stop-color="#7c9d8d"/><stop offset="0.09" stop-color="#769784"/><stop offset="0.47" stop-color="#628264"/><stop offset="0.78" stop-color="#557650"/><stop offset="1" stop-color="#517149"/></linearGradient></defs><g class="cls-2"><rect class="cls-3" x="311.52" y="29.95" width="454.68" height="924.56" transform="translate(290.51 -194.05) rotate(27.7)"/></g><path class="cls-4" d="M121.44,15.92h-5.09V31.77h-2.69V15.92h-3.3V14.54h3.3v-3c0-1.86.46-3.08,1.38-3.68A6.79,6.79,0,0,1,118.75,7c.37,0,.78,0,1.23,0s.93,0,1.46,0V8.49H119A3.16,3.16,0,0,0,117,9a2.71,2.71,0,0,0-.69,2.23v3.3h5.09Z"/><path class="cls-4" d="M130.28,32.12a8.78,8.78,0,0,1-3.39-.64,7.79,7.79,0,0,1-2.72-1.82,8.34,8.34,0,0,1-1.8-2.87,10.25,10.25,0,0,1-.66-3.75,9.76,9.76,0,0,1,.66-3.65,7.95,7.95,0,0,1,4.5-4.61,9.24,9.24,0,0,1,6.81,0,8.25,8.25,0,0,1,2.72,1.81,8.46,8.46,0,0,1,1.79,2.8,10,10,0,0,1,.65,3.65,10.05,10.05,0,0,1-.67,3.75,8.64,8.64,0,0,1-1.81,2.85,7.84,7.84,0,0,1-2.71,1.82A8.69,8.69,0,0,1,130.28,32.12Zm0-1.31a4.74,4.74,0,0,0,4.19-2.22,7.55,7.55,0,0,0,1-2.47,14.27,14.27,0,0,0,.32-3.08,13.62,13.62,0,0,0-.32-3,7.22,7.22,0,0,0-1-2.41,5.12,5.12,0,0,0-1.74-1.6,5.49,5.49,0,0,0-4.91,0,5.12,5.12,0,0,0-1.74,1.6,7,7,0,0,0-1,2.41,13,13,0,0,0-.33,3,13.66,13.66,0,0,0,.33,3.08,7.33,7.33,0,0,0,1,2.47,4.75,4.75,0,0,0,4.2,2.22Z"/><path class="cls-4" d="M150.12,32.12a8.78,8.78,0,0,1-3.39-.64A7.89,7.89,0,0,1,144,29.66a8.49,8.49,0,0,1-1.8-2.87,10.25,10.25,0,0,1-.65-3.75,9.76,9.76,0,0,1,.65-3.65,8,8,0,0,1,4.5-4.61,9.24,9.24,0,0,1,6.81,0,8.15,8.15,0,0,1,2.72,1.81,8.31,8.31,0,0,1,1.79,2.8,10,10,0,0,1,.65,3.65,10.05,10.05,0,0,1-.67,3.75,8.78,8.78,0,0,1-1.8,2.85,8,8,0,0,1-2.72,1.82A8.69,8.69,0,0,1,150.12,32.12Zm0-1.31a5,5,0,0,0,2.46-.58,4.85,4.85,0,0,0,1.73-1.64,7.55,7.55,0,0,0,1-2.47,13.66,13.66,0,0,0,.33-3.08,13,13,0,0,0-.33-3,7.22,7.22,0,0,0-1-2.41,5.24,5.24,0,0,0-6.65-1.6,5.12,5.12,0,0,0-1.74,1.6,7.21,7.21,0,0,0-1,2.41,13,13,0,0,0-.33,3,13.66,13.66,0,0,0,.33,3.08,7.54,7.54,0,0,0,1,2.47,4.75,4.75,0,0,0,4.2,2.22Z"/><path class="cls-4" d="M167.38,31.81a5,5,0,0,1-3.11-.79c-.68-.53-1-1.58-1-3.17V15.92h-3.13V14.54h3.13V11.38l2.58-1.82h.1v5h4.68v1.38h-4.68v12a3.09,3.09,0,0,0,.48,2,2.49,2.49,0,0,0,1.82.51h2.38v1.31l-1.36.05Z"/><path class="cls-4" d="M176.67,23.76v8H174V7h2.68V17.36a4.68,4.68,0,0,1,0,.66,6.08,6.08,0,0,1,2.14-2.77,5.76,5.76,0,0,1,3.51-1.08,6.55,6.55,0,0,1,4.38,1.53c1.2,1,1.81,2.82,1.81,5.41V31.77h-2.69V20.91c0-1.93-.37-3.29-1.12-4.1a3.74,3.74,0,0,0-2.87-1.2,4.38,4.38,0,0,0-3.63,2.08A10.4,10.4,0,0,0,176.67,23.76Z"/><path class="cls-4" d="M193.52,10.59V7.53h3v3.06Zm.14,21.18V14.54h2.68V31.77Z"/><path class="cls-4" d="M201.88,31.77V7h2.68V31.77Z"/><path class="cls-4" d="M210.1,31.77V7h2.68V31.77Z"/><path class="cls-4" d="M125.91,43.06l-6.5,17.23h-2.07l-7.22-17.23H113l5.88,14.38,5.3-14.38Z"/><path class="cls-4" d="M142.52,55.1a6.35,6.35,0,0,1-2.46,4,7.87,7.87,0,0,1-4.9,1.5,9,9,0,0,1-3.34-.62,7.65,7.65,0,0,1-2.68-1.79,8.1,8.1,0,0,1-1.77-2.85,10.89,10.89,0,0,1-.64-3.82,10.26,10.26,0,0,1,.67-3.8A8.43,8.43,0,0,1,129.19,45a7.86,7.86,0,0,1,2.55-1.7,7.58,7.58,0,0,1,2.9-.58,8.55,8.55,0,0,1,3,.53,7.59,7.59,0,0,1,2.55,1.56A7.28,7.28,0,0,1,142,47.36a9.26,9.26,0,0,1,.64,3.58v.55H129.76v.07a9.72,9.72,0,0,0,1.44,5.52,4.8,4.8,0,0,0,4.23,2.15,5.71,5.71,0,0,0,3.63-1.15,4.93,4.93,0,0,0,1.84-3ZM134.64,44a4.22,4.22,0,0,0-3.38,1.52,7.65,7.65,0,0,0-1.47,4.6h9.67a7.77,7.77,0,0,0-1.26-4.55A4.16,4.16,0,0,0,134.64,44Z"/><path class="cls-4" d="M149.29,52.28v8h-2.68V43.06h2.62v3.55a6.26,6.26,0,0,1,2.13-2.81,5.71,5.71,0,0,1,3.54-1.11,6.53,6.53,0,0,1,4.38,1.53q1.82,1.53,1.81,5.41V60.29h-2.68V49.43a6,6,0,0,0-1.12-4.1,3.75,3.75,0,0,0-2.87-1.2,4.38,4.38,0,0,0-3.63,2.08A10.32,10.32,0,0,0,149.29,52.28Z"/><path class="cls-4" d="M170.93,60.33a5,5,0,0,1-3.12-.79c-.67-.53-1-1.58-1-3.17V44.44h-3.13V43.06h3.13V39.9l2.58-1.82h.1v5h4.68v1.38h-4.68v12a3.09,3.09,0,0,0,.48,2,2.5,2.5,0,0,0,1.83.51h2.37v1.31l-1.36.05Z"/><path class="cls-4" d="M188.81,60.29l0-3.13a5.53,5.53,0,0,1-2,2.48,5.64,5.64,0,0,1-3.39,1,7.76,7.76,0,0,1-2.29-.35,5.29,5.29,0,0,1-2-1.11,5.79,5.79,0,0,1-1.43-2,7.64,7.64,0,0,1-.55-3.08v-11h2.68V54.28A4.88,4.88,0,0,0,181.07,58a4.06,4.06,0,0,0,2.82,1.14,4.23,4.23,0,0,0,3.41-1.77A8.48,8.48,0,0,0,188.71,52v-9h2.68V60.29Z"/><path class="cls-4" d="M199.61,50.32v10h-2.68V43.06h2.61V46.5a5,5,0,0,1,.36-.87A4.82,4.82,0,0,1,204.29,43l.48,0,.44.05v2.31l-.77-.09a8.76,8.76,0,0,0-.91-.05,4.83,4.83,0,0,0-1.41.22,3.17,3.17,0,0,0-1.26.8,4.1,4.1,0,0,0-.91,1.56A7.81,7.81,0,0,0,199.61,50.32Z"/><path class="cls-4" d="M222.07,55.1a6.43,6.43,0,0,1-2.46,4,7.89,7.89,0,0,1-4.9,1.5,8.94,8.94,0,0,1-3.34-.62,7.56,7.56,0,0,1-2.68-1.79,8.1,8.1,0,0,1-1.77-2.85,10.66,10.66,0,0,1-.64-3.82,10.06,10.06,0,0,1,.67-3.8A8.27,8.27,0,0,1,208.74,45a7.71,7.71,0,0,1,2.54-1.7,7.63,7.63,0,0,1,2.91-.58,8.63,8.63,0,0,1,3,.53,7.45,7.45,0,0,1,2.54,1.56,7.3,7.3,0,0,1,1.74,2.58,9.45,9.45,0,0,1,.63,3.58v.55H209.31v.07a9.72,9.72,0,0,0,1.44,5.52A4.77,4.77,0,0,0,215,59.23a5.73,5.73,0,0,0,3.63-1.15,5,5,0,0,0,1.84-3ZM214.19,44a4.24,4.24,0,0,0-3.39,1.52,7.65,7.65,0,0,0-1.46,4.6H219a7.77,7.77,0,0,0-1.26-4.55A4.17,4.17,0,0,0,214.19,44Z"/><path class="cls-4" d="M231.59,60.67a7.71,7.71,0,0,1-5.24-1.61,5.9,5.9,0,0,1-2-4.2h2.52a4.81,4.81,0,0,0,1.32,3.23,4.5,4.5,0,0,0,3.42,1.28,5.85,5.85,0,0,0,3.17-.83,2.7,2.7,0,0,0,1.3-2.44A2.43,2.43,0,0,0,235,54a8.67,8.67,0,0,0-3-1.2l-1.79-.42a9.84,9.84,0,0,1-3.73-1.54,3.57,3.57,0,0,1-1.32-3,4.39,4.39,0,0,1,.53-2.17A4.8,4.8,0,0,1,227.09,44a6.73,6.73,0,0,1,2.08-1,8.52,8.52,0,0,1,2.49-.36A7.6,7.6,0,0,1,236.27,44a4.67,4.67,0,0,1,2,3.59h-2.51a3.83,3.83,0,0,0-1.2-2.65,4.15,4.15,0,0,0-2.89-1,4.87,4.87,0,0,0-3,.91,2.72,2.72,0,0,0-1.2,2.22,2.2,2.2,0,0,0,.81,1.82,5.82,5.82,0,0,0,2.49,1l1.93.41A11.31,11.31,0,0,1,236.91,52a3.86,3.86,0,0,1,1.53,3.37,4.36,4.36,0,0,1-.61,2.27,5.37,5.37,0,0,1-1.56,1.66,7.17,7.17,0,0,1-2.18,1A9.19,9.19,0,0,1,231.59,60.67Z"/><path class="cls-5" d="M0,35.68,11.36,16a6,6,0,0,1,10.36,0l4.46,7.72,11-19a9.42,9.42,0,0,1,16.32,0l17.88,31H0Z"/><path class="cls-6" d="M63.2,66.65,47.47,39.41l-9.21,16a6,6,0,0,1-10.36,0L16.54,35.68H97.4l-17.88,31A9.42,9.42,0,0,1,63.2,66.65Z"/></svg>