<svg width="97" height="38" viewBox="0 0 97 38" fill="none" xmlns="http://www.w3.org/2000/svg">
<g clip-path="url(#clip0_6_65)">
<mask id="mask0_6_65" style="mask-type:luminance" maskUnits="userSpaceOnUse" x="-1" y="0" width="99" height="38">
<path d="M97.0016 0H-0.0820923V38H97.0016V0Z" fill="white"/>
</mask>
<g mask="url(#mask0_6_65)">
<path d="M39.4304 4.32187V0.445971H25.4639V19.9357H39.4189V16.0874H29.7862V12.0445H38.4586V8.33561H29.7862V4.32187H39.4304ZM56.1661 0.445971V12.9916L46.6631 0.445971H42.6183V19.9357H46.9389V7.7226L56.1661 19.9357H60.4883V0.445971H56.1661ZM68.6075 16.0598V0.445971H64.2853V19.9357H76.8646V16.0598H68.6075ZM17.3448 0.445971V0.447593L10.8425 12.9461L4.34029 0.445971H0V19.9357H4.3206V9.78867L9.59986 19.9357H12.0852L17.3448 9.82434V19.9357H21.667V0.445971H17.3448ZM86.9979 16.3242C83.5621 16.3242 80.7781 13.5219 80.7781 10.066C80.7781 6.60848 83.5621 3.80778 86.9979 3.80778C90.4321 3.80778 93.2178 6.61011 93.2178 10.066C93.2178 13.5219 90.4321 16.3242 86.9979 16.3242ZM86.9979 0C81.4724 0 76.9943 4.50674 76.9943 10.066C76.9943 15.6236 81.4724 20.132 86.9979 20.132C92.5218 20.132 97 15.6252 97 10.066C97 4.50674 92.5218 0 86.9979 0Z" fill="#FF772B"/>
</g>
<path d="M7.05932 29.1641L4.22927 36.4553H4.1751L1.26296 29.1641H0.0449219L3.5037 37.8305H4.78904L8.26259 29.1641H7.05932Z" fill="#F9F9F9"/>
<path d="M20.1124 37.8305H13.9746V29.1641H19.9893V30.1549H15.1237V32.8778H18.9912V33.8557H15.1237V36.8396H20.1124V37.8305Z" fill="#F9F9F9"/>
<path d="M32.1329 35.7953V29.1641H33.2393V37.8305H32.2971L27.2936 30.8701V37.8305H26.1855V29.1641H27.4167L32.1329 35.7953Z" fill="#F9F9F9"/>
<path d="M42.2063 37.8305V30.1549H39.0742V29.1641H46.5663V30.1549H43.3817V37.8305H42.2063Z" fill="#F9F9F9"/>
<mask id="mask1_6_65" style="mask-type:luminance" maskUnits="userSpaceOnUse" x="-1" y="0" width="99" height="38">
<path d="M97.0016 0H-0.0820923V38H97.0016V0Z" fill="white"/>
</mask>
<g mask="url(#mask1_6_65)">
<path d="M52.0234 34.5173V29.1657H53.1987V34.5303C53.1987 36.1812 54.0047 36.9921 55.5101 36.9921C57.0154 36.9921 57.8476 36.1796 57.8476 34.5433V29.1641H59.0099V34.5157C59.0099 37.0472 57.4504 37.9959 55.5101 37.9959C53.5697 37.9959 52.0234 37.0488 52.0234 34.5173Z" fill="#F9F9F9"/>
</g>
<mask id="mask2_6_65" style="mask-type:luminance" maskUnits="userSpaceOnUse" x="-1" y="0" width="99" height="38">
<path d="M97.0016 0H-0.0820923V38H97.0016V0Z" fill="white"/>
</mask>
<g mask="url(#mask2_6_65)">
<path d="M68.7042 33.387C70.1669 33.387 70.8235 32.8372 70.8235 31.7637C70.8235 30.7728 70.1669 30.1403 68.7042 30.1403H66.434V33.387H68.7042ZM70.9056 37.8305C70.7414 37.597 70.6183 36.9645 70.5494 35.9461C70.4952 34.9828 70.0438 34.3357 68.8684 34.3357H66.4356V37.8305H65.2734V29.1641H68.7732C70.9614 29.1641 72.0136 30.1825 72.0136 31.7231C72.0136 33.0578 71.1108 33.7584 70.0585 33.8833C71.1108 34.0892 71.6164 34.7363 71.6985 35.7547C71.8084 37.0213 71.8495 37.5159 72.1368 37.8321H70.9056V37.8305Z" fill="#F9F9F9"/>
</g>
<path d="M84.3143 37.8305H78.1748V29.1641H84.1911V30.1549H79.3239V32.8778H83.1931V33.8557H79.3239V36.8396H84.3143V37.8305Z" fill="#F9F9F9"/>
<mask id="mask3_6_65" style="mask-type:luminance" maskUnits="userSpaceOnUse" x="-1" y="0" width="99" height="38">
<path d="M97.0016 0H-0.0820923V38H97.0016V0Z" fill="white"/>
</mask>
<g mask="url(#mask3_6_65)">
<path d="M90.5077 34.6679C90.5767 36.2491 91.6552 37.0615 93.1047 37.0615C94.39 37.0615 95.196 36.5118 95.196 35.5615C95.196 34.7636 94.6773 34.3792 93.5561 34.1587L91.8473 33.8278C90.5767 33.5797 89.7001 32.8921 89.7001 31.5445C89.7001 30.0314 90.8902 29 92.7764 29C94.9367 29 96.181 30.1563 96.1941 32.1088L95.114 32.164C95.0729 30.7336 94.2111 29.9211 92.7895 29.9211C91.5452 29.9211 90.8475 30.5131 90.8475 31.4747C90.8475 32.3278 91.4073 32.6034 92.4054 32.7948L93.9632 33.0981C95.5358 33.4013 96.3287 34.0889 96.3287 35.4771C96.3287 37.0729 94.9613 37.994 93.1014 37.994C90.9822 37.994 89.4374 36.8248 89.4374 34.7344L90.5077 34.6679Z" fill="#F9F9F9"/>
</g>
<path d="M96.4107 24.1719H-0.0820312V24.913H96.4107V24.1719Z" fill="#F9F9F9"/>
</g>
<defs>
<clipPath id="clip0_6_65">
<rect width="97" height="38" fill="white"/>
</clipPath>
</defs>
</svg>
