<svg xmlns="http://www.w3.org/2000/svg" width="220" height="21" fill="none"><g clip-path="url(#a)" fill="#0E0D5A"><path d="M208.833 20.115a.282.282 0 0 1-.276-.321c.163-1.256.234-2.858.234-4.387V5.568c0-1.527-.071-3.124-.233-4.358a.283.283 0 0 1 .276-.322h2.759c.169 0 .298.153.276.322-.163 1.233-.233 2.831-.233 4.358v12.154c0 .154.124.278.276.278h1.732c2.008 0 3.924-.047 5.346-.311a.287.287 0 0 1 .336.324l-.29 1.866a.277.277 0 0 1-.273.236h-9.93zm-32.384 0a.282.282 0 0 1-.276-.321c.164-1.256.234-2.858.234-4.387V3.282a.277.277 0 0 0-.276-.28h-.142c-2.014 0-3.841.024-5.227.222a.284.284 0 0 1-.321-.324l.269-1.775a.276.276 0 0 1 .272-.237h13.67c.135 0 .25.1.272.234l.289 1.776a.284.284 0 0 1-.319.326c-1.408-.198-3.236-.221-5.251-.221h-.143a.278.278 0 0 0-.276.279v12.125c0 1.53.071 3.13.234 4.387a.282.282 0 0 1-.276.32h-2.733zm-14.268 0a.282.282 0 0 1-.276-.321c.163-1.256.234-2.858.234-4.387V5.568c0-1.527-.071-3.124-.233-4.358a.283.283 0 0 1 .276-.322h2.759c.169 0 .298.153.276.322-.163 1.233-.233 2.831-.233 4.358v9.839c0 1.53.071 3.13.234 4.387a.282.282 0 0 1-.276.32h-2.761zm-17.668 0a.282.282 0 0 1-.276-.321c.163-1.256.234-2.858.234-4.387V5.568c0-1.527-.071-3.124-.233-4.358a.282.282 0 0 1 .276-.322h6.93c3.235 0 5.159 1.805 5.159 5.188 0 4.003-2.677 6.089-5.885 6.54l-3.167.472a.278.278 0 0 0-.235.276v2.043c0 1.53.07 3.13.233 4.387a.281.281 0 0 1-.276.32h-2.76zm2.803-9.497c0 .153.123.278.276.278h2.318c2.064 0 3.876-1.184 3.876-4.228 0-2.96-1.645-3.89-3.486-3.89h-2.708a.277.277 0 0 0-.276.278v7.561zm-24.539 9.497a.28.28 0 0 1-.255-.39c.891-2.113 2.611-6.49 6.221-15.877a7.918 7.918 0 0 0 .554-2.68.284.284 0 0 1 .28-.28h2.541c.117 0 .22.07.259.182 1.557 4.437 5.531 14.725 7.214 18.654a.28.28 0 0 1-.254.39h-2.727c-.174 0-.301-.16-.287-.335.007-.077.007-.131.007-.172 0-3.157-1.981-4.849-5.467-4.849-1.51 0-2.967.29-4.145.742a.272.272 0 0 0-.162.174c-.56 1.782-.942 3.228-1.009 4.162a.295.295 0 0 1-.287.279h-2.483zm4.747-7.246c-.081.223.135.441.36.372a10.778 10.778 0 0 1 3.146-.484 9.22 9.22 0 0 1 2.641.386c.23.07.453-.16.366-.386l-2.98-7.699a.274.274 0 0 0-.511-.004 227.04 227.04 0 0 0-3.022 7.815zm59.659 7.246a.28.28 0 0 1-.254-.39c.89-2.113 2.611-6.49 6.221-15.876a7.937 7.937 0 0 0 .553-2.682.284.284 0 0 1 .28-.278h2.541c.117 0 .22.07.259.181 1.557 4.438 5.532 14.725 7.214 18.654a.279.279 0 0 1-.254.39h-2.726c-.174 0-.302-.16-.288-.335.007-.077.007-.13.007-.171 0-3.158-1.98-4.85-5.467-4.85-1.509 0-2.966.29-4.145.742a.272.272 0 0 0-.162.174c-.559 1.782-.941 3.228-1.009 4.162a.294.294 0 0 1-.287.279h-2.483zm4.747-7.246c-.081.223.136.441.361.372a10.776 10.776 0 0 1 3.146-.484c.878 0 1.792.129 2.641.386.23.07.452-.16.365-.386l-2.979-7.699a.274.274 0 0 0-.511-.004 227.143 227.143 0 0 0-3.023 7.815zm-79.292 7.666c-4.574 0-8.646-2.734-8.646-9.67 0-7.047 4.212-10.402 9.344-10.402 1.874 0 3.458.453 4.449.872.197.083.32.28.32.497v2.156c0 .24-.286.373-.478.232-1.205-.88-2.85-1.445-4.71-1.445-2.928 0-5.857 1.494-5.857 7.499 0 6.06 2.985 7.921 6.053 7.921 1.611 0 3.223-.528 4.567-1.274a.286.286 0 0 1 .425.248v1.719c0 .214-.121.41-.314.498-1.452.66-3.23 1.15-5.153 1.15zm-47.773 0c-4.574 0-8.646-2.734-8.646-9.67 0-7.047 4.211-10.402 9.343-10.402 1.875 0 3.459.453 4.45.872.197.083.32.28.32.497v2.156c0 .24-.286.373-.479.232-1.204-.88-2.85-1.445-4.71-1.445-2.928 0-5.856 1.494-5.856 7.499 0 6.06 2.984 7.921 6.052 7.921 1.611 0 3.223-.528 4.568-1.274a.286.286 0 0 1 .425.248v1.719c0 .214-.121.41-.315.498-1.452.66-3.23 1.15-5.152 1.15zm11.335-.41a.282.282 0 0 1-.276-.32c.163-1.257.234-2.858.234-4.387v-9.84c0-1.526-.07-3.124-.233-4.357a.282.282 0 0 1 .276-.322h2.76c.168 0 .298.153.275.322-.162 1.233-.233 2.831-.233 4.358v3.33c0 .154.124.278.276.278h8.346a.277.277 0 0 0 .275-.278v-3.33c0-1.53-.094-3.13-.24-4.364a.28.28 0 0 1 .276-.316h2.738c.17 0 .299.153.276.322-.162 1.233-.233 2.831-.233 4.358v9.838c0 1.53.071 3.131.234 4.388a.282.282 0 0 1-.276.32h-2.74a.28.28 0 0 1-.275-.314c.145-1.257.24-2.861.24-4.393V11.58a.277.277 0 0 0-.275-.278h-8.346a.277.277 0 0 0-.276.278v3.838c0 1.53.071 3.13.234 4.387a.282.282 0 0 1-.276.32h-2.76zm-39.657-.01a.28.28 0 0 1-.255-.39c.89-2.113 2.611-6.49 6.221-15.877a7.917 7.917 0 0 0 .553-2.68.284.284 0 0 1 .28-.28h2.542c.117 0 .22.07.258.182 1.557 4.437 5.532 14.725 7.215 18.654a.28.28 0 0 1-.255.39h-2.726c-.174 0-.301-.16-.287-.335.006-.077.006-.131.006-.172 0-3.157-1.98-4.849-5.466-4.849-1.51 0-2.967.29-4.146.742a.273.273 0 0 0-.161.174c-.56 1.782-.942 3.228-1.01 4.162a.295.295 0 0 1-.286.279h-2.483zm4.645-6.964c-.04.111.067.22.179.182a10.782 10.782 0 0 1 3.43-.576 9.22 9.22 0 0 1 2.64.386c.23.07.453-.16.365-.386l-2.98-7.699a.274.274 0 0 0-.51-.004 223.913 223.913 0 0 0-3.124 8.097zm-20.331 6.964a.282.282 0 0 1-.276-.321c.163-1.256.234-2.858.234-4.387V5.568c0-1.527-.07-3.124-.234-4.358a.282.282 0 0 1 .277-.322h9.597c.134 0 .25.099.272.233l.287 1.72a.285.285 0 0 1-.32.327c-1.407-.198-3.235-.222-5.25-.222h-1.509a.277.277 0 0 0-.276.28v5.87c0 .153.124.278.276.278h5.815c.16 0 .286.137.275.299l-.124 1.736a.282.282 0 0 1-.32.259c-1.484-.211-3.3-.236-4.945-.236h-.7a.277.277 0 0 0-.277.279v6.067c0 .154.124.279.276.279h2.514c1.985 0 3.924-.07 5.35-.319a.285.285 0 0 1 .331.325l-.289 1.817a.277.277 0 0 1-.273.235H20.857zM.836 15.396V5.573c0-1.522-.072-3.118-.242-4.35A.283.283 0 0 1 .87.9h7.416c3.346 0 5.352 1.63 5.352 4.868 0 2.854-1.54 4.678-4.144 5.668a.298.298 0 0 0-.136.447c1.853 2.655 2.463 6.27 5.068 6.27.16 0 .417-.014.667-.04a.29.29 0 0 1 .321.286v1.656a.255.255 0 0 1-.173.248c-.432.134-1.102.22-1.657.22-4.484 0-4.682-5.383-7.18-8.257a.268.268 0 0 0-.236-.089l-2.12.264a.278.278 0 0 0-.242.276v2.598c0 1.553.051 3.176.239 4.457a.284.284 0 0 1-.276.328h-2.9c-.17 0-.3-.153-.276-.323.171-1.255.243-2.85.243-4.38zm5.498-5.12c2.297 0 4.334-1.155 4.334-4.052 0-2.616-1.685-3.437-3.637-3.437H4.077a.278.278 0 0 0-.277.28v6.93c0 .155.124.28.276.28h2.258z"/></g><defs><clipPath id="a"><path fill="#fff" transform="translate(0 .392)" d="M0 0h220v20.215H0z"/></clipPath></defs></svg>